# xmcd
#
# Track frame offsets:
#	150
#	15157
#	30062
#
# Disc length: 598 seconds
#
# Revision: 0
# Processed by: cddbd v1.5.1PL2 Copyright (c) Steve Scherf et al.
# Submitted via: dBpowerAMP V4.0
#
DISCID=0a025403
DTITLE=Raybon Brothers Featuring Olivia Newton John - CD Single
DYEAR=1997
DGENRE=Country
TTITLE0=Falling
TTITLE1=Falling
TTITLE2=Falling
EXTD=
EXTT0=
EXTT1=
EXTT2=
PLAYORDER=
